<mxfile host="app.diagrams.net" modified="2022-02-25T16:33:18.866Z" agent="5.0 (Windows)" etag="iGIGcyCrXtzN2hiD8_oV" version="16.6.2" type="github">
  <diagram name="Page-1" id="64c3da0e-402f-94eb-ee01-a36477274f13">
    <mxGraphModel dx="1778" dy="886" grid="1" gridSize="10" guides="1" tooltips="1" connect="1" arrows="1" fold="1" page="1" pageScale="1" pageWidth="1169" pageHeight="826" background="none" math="0" shadow="0">
      <root>
        <mxCell id="0" />
        <mxCell id="1" parent="0" />
        <mxCell id="bIDy1EbA-8bbv9SZX7_E-254" value="" style="edgeStyle=orthogonalEdgeStyle;rounded=0;orthogonalLoop=1;jettySize=auto;html=1;fontSize=11;endArrow=none;strokeColor=#23445D;fontColor=#000000;endFill=0;strokeWidth=8;startArrow=none;" edge="1" parent="1" source="bIDy1EbA-8bbv9SZX7_E-255" target="bIDy1EbA-8bbv9SZX7_E-253">
          <mxGeometry relative="1" as="geometry">
            <Array as="points">
              <mxPoint x="1170" y="180" />
              <mxPoint x="2020" y="180" />
            </Array>
          </mxGeometry>
        </mxCell>
        <mxCell id="bIDy1EbA-8bbv9SZX7_E-256" value="" style="edgeStyle=orthogonalEdgeStyle;rounded=0;orthogonalLoop=1;jettySize=auto;html=1;fontSize=8;" edge="1" parent="1" source="2" target="bIDy1EbA-8bbv9SZX7_E-255">
          <mxGeometry relative="1" as="geometry" />
        </mxCell>
        <mxCell id="bIDy1EbA-8bbv9SZX7_E-258" value="" style="edgeStyle=orthogonalEdgeStyle;rounded=0;orthogonalLoop=1;jettySize=auto;html=1;fontSize=8;" edge="1" parent="1" source="2" target="bIDy1EbA-8bbv9SZX7_E-257">
          <mxGeometry relative="1" as="geometry" />
        </mxCell>
        <mxCell id="bIDy1EbA-8bbv9SZX7_E-260" value="" style="edgeStyle=orthogonalEdgeStyle;rounded=0;orthogonalLoop=1;jettySize=auto;html=1;fontSize=8;" edge="1" parent="1" source="2" target="bIDy1EbA-8bbv9SZX7_E-259">
          <mxGeometry relative="1" as="geometry" />
        </mxCell>
        <mxCell id="bIDy1EbA-8bbv9SZX7_E-262" value="" style="edgeStyle=orthogonalEdgeStyle;rounded=0;orthogonalLoop=1;jettySize=auto;html=1;fontSize=8;" edge="1" parent="1" source="2" target="bIDy1EbA-8bbv9SZX7_E-261">
          <mxGeometry relative="1" as="geometry" />
        </mxCell>
        <mxCell id="bIDy1EbA-8bbv9SZX7_E-264" value="" style="edgeStyle=orthogonalEdgeStyle;rounded=0;orthogonalLoop=1;jettySize=auto;html=1;fontSize=19;" edge="1" parent="1" source="2" target="bIDy1EbA-8bbv9SZX7_E-263">
          <mxGeometry relative="1" as="geometry" />
        </mxCell>
        <mxCell id="2" value="root" style="whiteSpace=wrap;rounded=1;shadow=1;fillColor=#10739E;strokeColor=none;fontColor=#FFFFFF;fontStyle=1;fontSize=24" parent="1" vertex="1">
          <mxGeometry x="1000" y="50" width="340" height="60" as="geometry" />
        </mxCell>
        <mxCell id="3" value=".devcontainer" style="whiteSpace=wrap;rounded=1;fillColor=#008A00;strokeColor=none;shadow=1;fontColor=#FFFFFF;fontStyle=1;fontSize=20;" parent="1" vertex="1">
          <mxGeometry x="230" y="260" width="140" height="60" as="geometry" />
        </mxCell>
        <mxCell id="4" value="_manifests" style="whiteSpace=wrap;rounded=1;fillColor=#008A00;strokeColor=none;shadow=1;fontColor=#FFFFFF;fontStyle=1;fontSize=20;" parent="1" vertex="1">
          <mxGeometry x="520" y="260" width="140" height="60" as="geometry" />
        </mxCell>
        <mxCell id="5" value="Database connection" style="whiteSpace=wrap;rounded=1;fillColor=#008A00;strokeColor=none;shadow=1;fontColor=#FFFFFF;fontStyle=1;fontSize=20;" parent="1" vertex="1">
          <mxGeometry x="1310" y="260" width="140" height="60" as="geometry" />
        </mxCell>
        <mxCell id="7" value="test&#xa;" style="whiteSpace=wrap;rounded=1;fillColor=#008A00;strokeColor=none;shadow=1;fontColor=#FFFFFF;fontStyle=1;fontSize=20;" parent="1" vertex="1">
          <mxGeometry x="800" y="260" width="140" height="60" as="geometry" />
        </mxCell>
        <mxCell id="8" value="src" style="whiteSpace=wrap;rounded=1;fillColor=#008A00;strokeColor=none;shadow=1;fontColor=#FFFFFF;fontStyle=1;fontSize=20;" parent="1" vertex="1">
          <mxGeometry x="1100" y="260" width="140" height="60" as="geometry" />
        </mxCell>
        <mxCell id="188" value="WORK&#xa;PACKAGE 5" style="whiteSpace=wrap;rounded=1;fillColor=#999999;strokeColor=none;shadow=1;fontColor=#FFFFFF;fontStyle=0" parent="1" vertex="1">
          <mxGeometry x="1120" y="890" width="120" height="60" as="geometry" />
        </mxCell>
        <mxCell id="229" value="" style="edgeStyle=elbowEdgeStyle;elbow=vertical;rounded=0;fontColor=#000000;endArrow=none;endFill=0;strokeWidth=8;strokeColor=#23445D;" parent="1" source="2" target="3" edge="1">
          <mxGeometry width="100" height="100" relative="1" as="geometry">
            <mxPoint x="540" y="140" as="sourcePoint" />
            <mxPoint x="640" y="40" as="targetPoint" />
          </mxGeometry>
        </mxCell>
        <mxCell id="230" value="" style="edgeStyle=elbowEdgeStyle;elbow=vertical;rounded=0;fontColor=#000000;endArrow=none;endFill=0;strokeWidth=8;strokeColor=#23445D;" parent="1" source="2" target="4" edge="1">
          <mxGeometry width="100" height="100" relative="1" as="geometry">
            <mxPoint x="550" y="150" as="sourcePoint" />
            <mxPoint x="650" y="50" as="targetPoint" />
          </mxGeometry>
        </mxCell>
        <mxCell id="231" value="" style="edgeStyle=elbowEdgeStyle;elbow=vertical;rounded=0;fontColor=#000000;endArrow=none;endFill=0;strokeWidth=8;strokeColor=#23445D;entryX=0.5;entryY=0;entryDx=0;entryDy=0;" parent="1" source="2" target="bIDy1EbA-8bbv9SZX7_E-251" edge="1">
          <mxGeometry width="100" height="100" relative="1" as="geometry">
            <mxPoint x="560" y="160" as="sourcePoint" />
            <mxPoint x="2220" y="259.9999999999998" as="targetPoint" />
            <Array as="points">
              <mxPoint x="2160" y="180" />
            </Array>
          </mxGeometry>
        </mxCell>
        <mxCell id="232" value="" style="edgeStyle=elbowEdgeStyle;elbow=vertical;rounded=0;fontColor=#000000;endArrow=none;endFill=0;strokeWidth=8;strokeColor=#23445D;" parent="1" source="2" target="7" edge="1">
          <mxGeometry width="100" height="100" relative="1" as="geometry">
            <mxPoint x="570" y="170" as="sourcePoint" />
            <mxPoint x="670" y="70" as="targetPoint" />
          </mxGeometry>
        </mxCell>
        <mxCell id="233" value="" style="edgeStyle=elbowEdgeStyle;elbow=vertical;rounded=0;fontColor=#000000;endArrow=none;endFill=0;strokeWidth=8;strokeColor=#23445D;" parent="1" source="2" target="8" edge="1">
          <mxGeometry width="100" height="100" relative="1" as="geometry">
            <mxPoint x="580" y="180" as="sourcePoint" />
            <mxPoint x="680" y="80" as="targetPoint" />
          </mxGeometry>
        </mxCell>
        <mxCell id="234" value="" style="edgeStyle=elbowEdgeStyle;elbow=vertical;rounded=0;fontColor=#000000;endArrow=none;endFill=0;strokeWidth=8;strokeColor=#23445D;" parent="1" source="2" target="5" edge="1">
          <mxGeometry width="100" height="100" relative="1" as="geometry">
            <mxPoint x="590" y="190" as="sourcePoint" />
            <mxPoint x="690" y="90" as="targetPoint" />
          </mxGeometry>
        </mxCell>
        <mxCell id="bIDy1EbA-8bbv9SZX7_E-240" value="" style="edgeStyle=orthogonalEdgeStyle;rounded=0;orthogonalLoop=1;jettySize=auto;html=1;endArrow=none;strokeColor=#23445D;fontColor=#000000;endFill=0;strokeWidth=8;" edge="1" parent="1" source="bIDy1EbA-8bbv9SZX7_E-234" target="bIDy1EbA-8bbv9SZX7_E-239">
          <mxGeometry relative="1" as="geometry" />
        </mxCell>
        <mxCell id="bIDy1EbA-8bbv9SZX7_E-246" value="" style="edgeStyle=orthogonalEdgeStyle;rounded=0;orthogonalLoop=1;jettySize=auto;html=1;fontSize=11;endArrow=none;strokeColor=#23445D;fontColor=#000000;endFill=0;strokeWidth=8;" edge="1" parent="1" source="bIDy1EbA-8bbv9SZX7_E-234" target="bIDy1EbA-8bbv9SZX7_E-245">
          <mxGeometry relative="1" as="geometry" />
        </mxCell>
        <mxCell id="bIDy1EbA-8bbv9SZX7_E-234" value="controllers" style="whiteSpace=wrap;html=1;fontSize=20;fillColor=#008A00;strokeColor=none;fontColor=#FFFFFF;rounded=1;shadow=1;fontStyle=1;" vertex="1" parent="1">
          <mxGeometry x="840" y="500" width="120" height="60" as="geometry" />
        </mxCell>
        <mxCell id="bIDy1EbA-8bbv9SZX7_E-236" value="" style="edgeStyle=elbowEdgeStyle;elbow=vertical;rounded=0;fontColor=#000000;endArrow=none;endFill=0;strokeWidth=8;strokeColor=#23445D;exitX=0.503;exitY=1.188;exitDx=0;exitDy=0;exitPerimeter=0;" edge="1" parent="1" source="8" target="bIDy1EbA-8bbv9SZX7_E-234">
          <mxGeometry width="100" height="100" relative="1" as="geometry">
            <mxPoint x="1240" y="279.2814285714287" as="sourcePoint" />
            <mxPoint x="2070" y="279.2814285714287" as="targetPoint" />
            <Array as="points">
              <mxPoint x="1180" y="470" />
              <mxPoint x="1060" y="340" />
              <mxPoint x="1370" y="280" />
            </Array>
          </mxGeometry>
        </mxCell>
        <mxCell id="bIDy1EbA-8bbv9SZX7_E-242" value="" style="edgeStyle=orthogonalEdgeStyle;rounded=0;orthogonalLoop=1;jettySize=auto;html=1;endArrow=none;strokeColor=#23445D;fontColor=#000000;endFill=0;strokeWidth=8;" edge="1" parent="1" source="bIDy1EbA-8bbv9SZX7_E-239" target="bIDy1EbA-8bbv9SZX7_E-241">
          <mxGeometry relative="1" as="geometry" />
        </mxCell>
        <mxCell id="bIDy1EbA-8bbv9SZX7_E-244" style="edgeStyle=orthogonalEdgeStyle;rounded=0;orthogonalLoop=1;jettySize=auto;html=1;exitX=1;exitY=1;exitDx=0;exitDy=0;entryX=0;entryY=0.5;entryDx=0;entryDy=0;endArrow=none;strokeColor=#23445D;fontColor=#000000;endFill=0;strokeWidth=8;" edge="1" parent="1" source="bIDy1EbA-8bbv9SZX7_E-239" target="bIDy1EbA-8bbv9SZX7_E-243">
          <mxGeometry relative="1" as="geometry">
            <Array as="points">
              <mxPoint x="1170" y="570" />
              <mxPoint x="1160" y="570" />
              <mxPoint x="1160" y="540" />
              <mxPoint x="1310" y="540" />
            </Array>
          </mxGeometry>
        </mxCell>
        <mxCell id="bIDy1EbA-8bbv9SZX7_E-239" value="v1" style="whiteSpace=wrap;html=1;fontSize=30;fillColor=#008a00;strokeColor=#005700;rounded=1;shadow=1;fontStyle=1;fontColor=#ffffff;" vertex="1" parent="1">
          <mxGeometry x="1050" y="500" width="120" height="60" as="geometry" />
        </mxCell>
        <mxCell id="bIDy1EbA-8bbv9SZX7_E-241" value="&lt;div style=&quot;font-size: 10px;&quot;&gt;MaterialsController.ts&lt;/div&gt;" style="ellipse;whiteSpace=wrap;html=1;fontSize=10;fillColor=#e3c800;strokeColor=#B09500;rounded=1;shadow=1;fontStyle=1;fontColor=#000000;" vertex="1" parent="1">
          <mxGeometry x="1250" y="430" width="120" height="60" as="geometry" />
        </mxCell>
        <mxCell id="bIDy1EbA-8bbv9SZX7_E-243" value="&lt;div style=&quot;font-size: 8px;&quot;&gt;RawMaterialsController.ts&lt;/div&gt;" style="ellipse;whiteSpace=wrap;html=1;fontSize=8;fillColor=#e3c800;strokeColor=#B09500;rounded=1;shadow=1;fontStyle=1;fontColor=#000000;" vertex="1" parent="1">
          <mxGeometry x="1250" y="550" width="120" height="60" as="geometry" />
        </mxCell>
        <mxCell id="bIDy1EbA-8bbv9SZX7_E-248" value="" style="edgeStyle=orthogonalEdgeStyle;rounded=0;orthogonalLoop=1;jettySize=auto;html=1;fontSize=11;endArrow=none;strokeColor=#23445D;fontColor=#000000;endFill=0;strokeWidth=8;" edge="1" parent="1" source="bIDy1EbA-8bbv9SZX7_E-245" target="bIDy1EbA-8bbv9SZX7_E-247">
          <mxGeometry relative="1" as="geometry" />
        </mxCell>
        <mxCell id="bIDy1EbA-8bbv9SZX7_E-245" value="clients" style="whiteSpace=wrap;html=1;fontSize=30;fillColor=#008A00;strokeColor=none;fontColor=#FFFFFF;rounded=1;shadow=1;fontStyle=1;" vertex="1" parent="1">
          <mxGeometry x="840" y="630" width="120" height="60" as="geometry" />
        </mxCell>
        <mxCell id="bIDy1EbA-8bbv9SZX7_E-268" value="" style="edgeStyle=elbowEdgeStyle;shape=connector;rounded=0;orthogonalLoop=1;jettySize=auto;elbow=vertical;html=1;labelBackgroundColor=default;fontFamily=Helvetica;fontSize=11;fontColor=#000000;endArrow=none;endFill=0;strokeColor=#23445D;strokeWidth=8;" edge="1" parent="1" source="bIDy1EbA-8bbv9SZX7_E-247">
          <mxGeometry relative="1" as="geometry">
            <mxPoint x="1240" y="660.25" as="targetPoint" />
          </mxGeometry>
        </mxCell>
        <mxCell id="bIDy1EbA-8bbv9SZX7_E-270" value="" style="edgeStyle=elbowEdgeStyle;shape=connector;rounded=0;orthogonalLoop=1;jettySize=auto;elbow=vertical;html=1;labelBackgroundColor=default;fontFamily=Helvetica;fontSize=30;fontColor=#ffffff;endArrow=none;endFill=0;strokeColor=#23445D;strokeWidth=8;" edge="1" parent="1" source="bIDy1EbA-8bbv9SZX7_E-247" target="bIDy1EbA-8bbv9SZX7_E-269">
          <mxGeometry relative="1" as="geometry" />
        </mxCell>
        <mxCell id="bIDy1EbA-8bbv9SZX7_E-276" value="" style="edgeStyle=elbowEdgeStyle;shape=connector;rounded=0;orthogonalLoop=1;jettySize=auto;elbow=vertical;html=1;labelBackgroundColor=default;fontFamily=Helvetica;fontSize=18;fontColor=#ffffff;endArrow=none;endFill=0;strokeColor=#23445D;strokeWidth=8;" edge="1" parent="1" source="bIDy1EbA-8bbv9SZX7_E-247" target="bIDy1EbA-8bbv9SZX7_E-275">
          <mxGeometry relative="1" as="geometry" />
        </mxCell>
        <mxCell id="bIDy1EbA-8bbv9SZX7_E-247" value="v1" style="whiteSpace=wrap;html=1;fontSize=30;fillColor=#008A00;strokeColor=none;fontColor=#FFFFFF;rounded=1;shadow=1;fontStyle=1;" vertex="1" parent="1">
          <mxGeometry x="1040" y="630" width="120" height="60" as="geometry" />
        </mxCell>
        <mxCell id="bIDy1EbA-8bbv9SZX7_E-251" value="Dockerfile" style="ellipse;whiteSpace=wrap;html=1;fontSize=19;fillColor=#e3c800;strokeColor=#B09500;rounded=1;shadow=1;fontStyle=1;fontColor=#000000;" vertex="1" parent="1">
          <mxGeometry x="2100" y="260" width="120" height="60" as="geometry" />
        </mxCell>
        <mxCell id="bIDy1EbA-8bbv9SZX7_E-253" value="&lt;div&gt;Entities&lt;/div&gt;" style="whiteSpace=wrap;html=1;fontSize=20;fillColor=#008A00;strokeColor=none;fontColor=#FFFFFF;rounded=1;shadow=1;fontStyle=1;" vertex="1" parent="1">
          <mxGeometry x="1500" y="260" width="120" height="60" as="geometry" />
        </mxCell>
        <mxCell id="bIDy1EbA-8bbv9SZX7_E-257" value="&lt;div&gt;middlewares&lt;/div&gt;" style="whiteSpace=wrap;html=1;fontSize=20;fillColor=#008A00;strokeColor=none;fontColor=#FFFFFF;rounded=1;shadow=1;fontStyle=1;" vertex="1" parent="1">
          <mxGeometry x="1890" y="260" width="120" height="60" as="geometry" />
        </mxCell>
        <mxCell id="bIDy1EbA-8bbv9SZX7_E-259" value="config.ts" style="ellipse;whiteSpace=wrap;html=1;fontSize=19;fillColor=#e3c800;strokeColor=#B09500;fontColor=#000000;rounded=1;shadow=1;fontStyle=1;" vertex="1" parent="1">
          <mxGeometry x="2100" y="560" width="120" height="60" as="geometry" />
        </mxCell>
        <mxCell id="bIDy1EbA-8bbv9SZX7_E-261" value="app.ts" style="ellipse;whiteSpace=wrap;html=1;fontSize=21;fillColor=#e3c800;strokeColor=#B09500;fontColor=#000000;rounded=1;shadow=1;fontStyle=1;" vertex="1" parent="1">
          <mxGeometry x="2100" y="383" width="120" height="60" as="geometry" />
        </mxCell>
        <mxCell id="bIDy1EbA-8bbv9SZX7_E-263" value="server.ts" style="ellipse;whiteSpace=wrap;html=1;fontSize=19;fillColor=#e3c800;strokeColor=#B09500;fontColor=#000000;rounded=1;shadow=1;fontStyle=1;" vertex="1" parent="1">
          <mxGeometry x="2100" y="720" width="120" height="60" as="geometry" />
        </mxCell>
        <mxCell id="bIDy1EbA-8bbv9SZX7_E-255" value="utils" style="whiteSpace=wrap;html=1;fontSize=20;fillColor=#008A00;strokeColor=none;fontColor=#FFFFFF;rounded=1;shadow=1;fontStyle=1;" vertex="1" parent="1">
          <mxGeometry x="1700" y="260" width="120" height="60" as="geometry" />
        </mxCell>
        <mxCell id="bIDy1EbA-8bbv9SZX7_E-265" value="" style="edgeStyle=orthogonalEdgeStyle;rounded=0;orthogonalLoop=1;jettySize=auto;html=1;fontSize=11;endArrow=none;strokeColor=#23445D;fontColor=#000000;endFill=0;strokeWidth=8;" edge="1" parent="1" source="2" target="bIDy1EbA-8bbv9SZX7_E-255">
          <mxGeometry relative="1" as="geometry">
            <mxPoint x="1170" y="110" as="sourcePoint" />
            <mxPoint x="1620" y="289.9999999999998" as="targetPoint" />
            <Array as="points" />
          </mxGeometry>
        </mxCell>
        <mxCell id="bIDy1EbA-8bbv9SZX7_E-272" value="" style="edgeStyle=elbowEdgeStyle;shape=connector;rounded=0;orthogonalLoop=1;jettySize=auto;elbow=vertical;html=1;labelBackgroundColor=default;fontFamily=Helvetica;fontSize=30;fontColor=#ffffff;endArrow=none;endFill=0;strokeColor=#23445D;strokeWidth=8;" edge="1" parent="1" source="bIDy1EbA-8bbv9SZX7_E-269" target="bIDy1EbA-8bbv9SZX7_E-271">
          <mxGeometry relative="1" as="geometry" />
        </mxCell>
        <mxCell id="bIDy1EbA-8bbv9SZX7_E-269" value="ApiKeyManagement" style="whiteSpace=wrap;html=1;fontSize=30;fillColor=#008A00;strokeColor=none;fontColor=#FFFFFF;rounded=1;shadow=1;fontStyle=1;" vertex="1" parent="1">
          <mxGeometry x="1240" y="630" width="340" height="60" as="geometry" />
        </mxCell>
        <mxCell id="bIDy1EbA-8bbv9SZX7_E-274" value="" style="edgeStyle=elbowEdgeStyle;shape=connector;rounded=0;orthogonalLoop=1;jettySize=auto;elbow=vertical;html=1;labelBackgroundColor=default;fontFamily=Helvetica;fontSize=18;fontColor=#ffffff;endArrow=none;endFill=0;strokeColor=#23445D;strokeWidth=8;exitX=1;exitY=0.5;exitDx=0;exitDy=0;" edge="1" parent="1" source="bIDy1EbA-8bbv9SZX7_E-269" target="bIDy1EbA-8bbv9SZX7_E-273">
          <mxGeometry relative="1" as="geometry">
            <Array as="points">
              <mxPoint x="1680" y="590" />
              <mxPoint x="1780" y="520" />
            </Array>
          </mxGeometry>
        </mxCell>
        <mxCell id="bIDy1EbA-8bbv9SZX7_E-271" value="&lt;div style=&quot;font-size: 18px;&quot;&gt;Client.ts&lt;/div&gt;" style="ellipse;whiteSpace=wrap;html=1;fontSize=18;fillColor=#e3c800;strokeColor=#B09500;fontColor=#000000;rounded=1;shadow=1;fontStyle=1;" vertex="1" parent="1">
          <mxGeometry x="1770" y="630" width="120" height="60" as="geometry" />
        </mxCell>
        <mxCell id="bIDy1EbA-8bbv9SZX7_E-273" value="tokenData.ts" style="ellipse;whiteSpace=wrap;html=1;fontSize=18;fillColor=#e3c800;strokeColor=#B09500;fontColor=#000000;rounded=1;shadow=1;fontStyle=1;" vertex="1" parent="1">
          <mxGeometry x="1770" y="560" width="120" height="60" as="geometry" />
        </mxCell>
        <mxCell id="bIDy1EbA-8bbv9SZX7_E-275" value="MaterialManagement" style="whiteSpace=wrap;html=1;fontSize=30;fillColor=#008A00;strokeColor=none;fontColor=#FFFFFF;rounded=1;shadow=1;fontStyle=1;" vertex="1" parent="1">
          <mxGeometry x="1240" y="750" width="350" height="60" as="geometry" />
        </mxCell>
      </root>
    </mxGraphModel>
  </diagram>
</mxfile>
